<?xml version="1.0" standalone="no"?>
<!DOCTYPE svg PUBLIC "-//W3C//DTD SVG 20010904//EN"
 "http://www.w3.org/TR/2001/REC-SVG-20010904/DTD/svg10.dtd">
<svg version="1.0" xmlns="http://www.w3.org/2000/svg"
 width="700.000000pt" height="700.000000pt" viewBox="0 0 700.000000 700.000000"
 preserveAspectRatio="xMidYMid meet">
<metadata>
Created by potrace 1.14, written by Peter Selinger 2001-2017
</metadata>
<g transform="translate(0.000000,700.000000) scale(0.100000,-0.100000)"
fill="#000000" stroke="none">
<path d="M390 6222 l0 -777 970 0 c641 0 970 3 971 10 3 33 4 1513 0 1528 -3
16 -58 17 -972 17 l-969 0 0 -778z"/>
<path d="M4666 6237 c1 -419 2 -769 3 -777 1 -13 116 -15 971 -15 l970 0 0
777 0 778 -972 0 -973 0 1 -763z"/>
<path d="M393 3551 c2 -399 7 -739 10 -756 3 -16 11 -68 17 -115 5 -47 12 -96
15 -110 14 -63 27 -127 31 -150 3 -14 14 -59 25 -100 123 -460 338 -871 648
-1234 94 -110 263 -277 365 -361 27 -22 54 -45 60 -50 6 -6 40 -31 76 -57 36
-26 70 -51 75 -55 28 -23 211 -136 290 -180 283 -156 650 -286 925 -329 19 -3
41 -7 49 -10 8 -2 30 -7 50 -10 20 -2 50 -6 66 -9 179 -27 628 -27 796 0 13 2
58 9 99 15 41 6 116 20 165 31 50 11 99 21 110 24 76 16 333 100 410 134 11 5
38 17 60 26 483 211 902 537 1226 955 69 89 185 257 207 300 7 14 28 52 48 85
112 189 242 514 298 745 22 86 37 161 51 240 9 52 18 105 20 118 16 92 20 284
20 887 l0 690 -967 1 c-706 1 -968 -2 -969 -10 0 -6 -2 -292 -3 -636 -2 -344
-6 -647 -10 -675 -21 -143 -62 -271 -124 -385 -34 -64 -105 -174 -126 -196 -6
-6 -34 -36 -62 -65 -498 -530 -1367 -471 -1788 121 -100 140 -179 320 -201
460 -4 25 -10 54 -13 65 -2 11 -6 310 -7 665 -2 355 -4 648 -4 651 -1 3 -438
6 -972 6 l-970 1 4 -727z"/>
</g>
</svg>
